General
Complete name                    : I:12 Monkeys (1995) 720p - JeLL12 Monkeys (1995).mkv
Format                           : Matroska
File size                        : 5.04 GiB
Duration                         : 2h 9mn
Overall bit rate                 : 5 573 Kbps
Encoded date                     : UTC 2010-04-26 11:43:00
Writing application              : mkvmerge v3.3.0 ('Language') built on Mar 24 2010 14:59:24
Writing library                  : libebml v0.8.0 + libmatroska v0.9.0

Video
ID                               : 1
Format                           : AVC
Format/Info                      : Advanced Video Codec
Codec ID                         : V_MPEG4/ISO/AVC
Duration                         : 2h 9mn
Bit rate                         : 5 078 Kbps
Width                            : 1 280 pixels
Height                           : 720 pixels
Display aspect ratio             : 16:9
Frame rate                       : 23.976 fps
Bits/(Pixel*Frame)               : 0.230
Stream size                      : 4.60 GiB (91%)

Audio
ID                               : 2
Format                           : AC-3
Format/Info                      : Audio Coding 3
Format_Settings_ModeExtension    : CM (complete main)
Codec ID                         : A_AC3
Duration                         : 2h 9mn
Bit rate mode                    : Constant
Bit rate                         : 384 Kbps
Channel(s)                       : 6 channels
Channel positions                : Front: L C R, Side: L R, LFE
Sampling rate                    : 48.0 KHz
Stream size                      : 356 MiB (7%)
Language                         : English

Text
ID                               : 3
Format                           : VobSub
Codec ID                         : S_VOBSUB
Codec ID/Info                    : The same subtitle format used on DVDs
Language                         : English

